<svg xmlns="http://www.w3.org/2000/svg" viewBox="0 0 728.73 121.25"><defs><style>.cls-1{fill:#fff;}</style></defs><title>logo</title><g id="Layer_2" data-name="Layer 2"><g id="Layer_1-2" data-name="Layer 1"><path class="cls-1" d="M21.23,34.67c-3.8-1-7.13-1.44-10.2-2.62-6.6-2.52-8.16-8.12-3.5-13.47a34.42,34.42,0,0,1,8.92-7.07C26.72,5.7,38,2.6,49.56,1A98.8,98.8,0,0,1,66.48.05,26.92,26.92,0,0,1,77,2.75c4.39,2.13,4.87,6.32,1,9.19a45.53,45.53,0,0,1-10.58,5.35c-1.07.42-2.75-.69-5.07-1.35,4.75-3.55,10.85-2.91,13.09-8.3-1.6-2.31-4-2.41-6.25-2.69-13.73-1.69-26.89.93-39.66,5.65a120.44,120.44,0,0,0-14.76,7.2,15.92,15.92,0,0,0-4.49,3.9c-1.93,2.34-1.48,4.66,1,6.36a11.46,11.46,0,0,0,3.6,1.67c6.66,1.58,13.15,2.65,20-.17A57.82,57.82,0,0,1,59.27,25a43.35,43.35,0,0,1,6.15,1.15c-.72,4-2.94,5.93-5.59,6.79a58.2,58.2,0,0,1-13,3c-4.6.39-9.28-.32-13.93-.52a9.93,9.93,0,0,0-3.45.08c-8.69,3-16.36,7.49-21.65,15.27-4.51,6.63-3.6,12.49,3.36,16.48a36.34,36.34,0,0,0,13.54,4.56c16.86,1.9,33.17-.82,48.86-7.34a6.73,6.73,0,0,0,4.61-5.75c1.33-7.7,5.64-13,14-14.86.6-3.05,1.11-6.32,1.91-9.5.93-3.71,2-7.4,3.24-11a24.24,24.24,0,0,1,3-5.7c1.44-2.08,3.31-4.11,6.17-3.27s3.19,3.67,3,6.2A42.79,42.79,0,0,1,108,30.33c-3,9-6.3,17.87-9.65,26.73-1.25,3.32-.93,5.83,1.66,7.93a5.67,5.67,0,0,0,7.38-.14c3.84-3,7-6.57,7.85-11.71.57-3.54.86-3.6,4.61-2.65-.2,3.26-.49,6.55-.58,9.84-.08,2.61.52,5.1,3.25,6.2,2.57,1,4.69-.42,6.22-2.15,3.07-3.48,5.84-7.23,8.69-10.91.71-.91,1.09-2.12,1.91-2.91s2.36-2.12,3.11-1.86a4.62,4.62,0,0,1,2.7,3,70.4,70.4,0,0,1,.1,9,6.31,6.31,0,0,0,.38,2.57c3.91-4.64,3.84-11,6.78-15.94,5.66-.64,7,.76,6.23,6.16a37.4,37.4,0,0,0-.44,8.44c.13,1.37,1.42,3.4,2.57,3.71,1.46.39,4.12-.14,4.82-1.21,2.25-3.41,4.75-7.09,5.49-11,2.13-11.26,3.46-22.69,5.09-34,.18-1.32,0-2.77.47-3.94s1.84-2.66,2.36-2.5a5.29,5.29,0,0,1,3.08,2.61c.46,1-.08,2.57-.31,3.87-1.73,9.49-3.51,19-5.23,28.47-.23,1.29-.22,2.63-.41,5,1.84-2.61,3-4.53,4.42-6.2,2-2.38,4.56-4,7.91-3s4.18,3.79,4.24,6.65a90.82,90.82,0,0,1-.79,10.39,24.4,24.4,0,0,1-.59,2.77l1,.39a31.79,31.79,0,0,0,1.85-4.5c.89-3.55,1.45-7.17,2.37-10.7.59-2.22,1.84-3.66,4.53-1.49-.61,3.11-1.35,6.31-1.83,9.55a18.85,18.85,0,0,0-.05,5.46c.14,1,1,2.38,1.76,2.56a3.26,3.26,0,0,0,2.81-1.4c1.62-3.24,3-6.62,4.32-10,.6-1.54.64-3.34,1.41-4.76.46-.85,1.84-1.2,3.91-2.43-.22,3-.37,4.52-.45,6.1a83.77,83.77,0,0,0-.33,9c.12,2,.89,4,3.24,4.56a5.28,5.28,0,0,0,5.66-2.31,10.57,10.57,0,0,0,1.67-3.05c1.52-4.87,4.49-9.26,4.5-14.65,0-1.64,1.14-3.27,1.77-4.9,4.15.51,3.6,3.28,3.74,5.64.29.11.63.38.87.31,2-.55,4.54-2.1,5.86.25.88,1.57.23,4.05.14,6.12-.12,3-.8,6-.46,8.85.45,3.81,3.72,5.27,7,3.26a17.74,17.74,0,0,0,5-4.78c2.3-3.25,4.2-6.79,6.29-10.19,3.77-6.15,7-6.92,13.13-3.09,1.56-.51,2.47-3.75,5.16-.93-1.35,8-4.37,16.09-2.78,25,3.22-1.76,3.27-4.69,3.59-7.61,1.33-12.24,2.7-24.48,4.21-36.7a24.48,24.48,0,0,1,2-6.67c1.32-3.09,3.29-4.13,5.85-3.37a5.44,5.44,0,0,1,4.19,5.54,12.82,12.82,0,0,1-.75,4.39c-2.7,7.33-5.63,14.58-8.26,21.93-1.14,3.2-1.76,6.58-2.61,9.88l1.19.46c1.07-1.93,2-3.95,3.26-5.77a16.33,16.33,0,0,1,3.87-4.45c2.64-1.79,5.39,0,5.33,3.19a19.9,19.9,0,0,1-.47,3c-1,5.8-.82,11.3,4.22,15.61-4.44.36-7.56-1.18-8.51-5.13-.81-3.38-.51-7-.76-11.68-4.62,9-6.81,18.67-16.44,22.93,0,7,.05,13.6,0,20.23-.06,5.9-1,11.73-4,16.81a19.79,19.79,0,0,1-6.52,6.51c-3.26,2-6.61.62-7.49-3a30,30,0,0,1-.57-11.28,53.78,53.78,0,0,1,11-25.4c3.34-4.21,3.47-8.22,2.32-12.94-7.76,6.23-11.57,5.36-14.29-3.3a56.05,56.05,0,0,1-4.55,3.9c-5.76,4-12.43,1.73-14-5.09-.84-3.59-.52-7.45-.73-11.28l-4.21.44c-.84,2.31-1.53,4.7-2.58,6.92a34.69,34.69,0,0,1-4.19,7.31c-4.29,5.14-10,4.49-13.49-1.25-.43-.71-.73-1.49-1.3-2.65-.82,1.14-1.53,2.11-2.23,3.09-3.73,5.23-6.68,5.41-11,.83-3.65,1.6-7.13,3.49-10.85,4.63-2.06.64-4.5.11-6.76,0-1.72-.12-3.44-.46-5.61-.77l-2.51-5.17c-2.34,3.94-5.63,5.91-10.09,4.39-6.25-2.12-5.27-7.71-6.35-12.9-.64,1.54-1.24,3.1-2,4.6-.92,1.95-1.64,4.13-3,5.67A6.09,6.09,0,0,1,143.68,69c-1-.13-2.22-2.39-2.36-3.79-.34-3.44-.11-6.93-.11-10.91-.73,1-1.31,1.79-1.88,2.59-2.31,3.24-4.28,6.81-7,9.67-7.19,7.59-15.27,4.63-17.35-3-3.36,2.24-6.54,5.2-10.31,6.64-4.54,1.74-7.79-1.47-10.47-5.36-3.44,2.57-6,6.7-11,5.76-3-.56-4.6-2.48-5.56-5.5a22.17,22.17,0,0,0-2.26,1.06c-16.83,10.32-35.11,13-54.29,9.77A41.13,41.13,0,0,1,7.67,70.82C-.61,66-2.23,57.43,3,49.35c3.36-5.16,8.18-8.7,13.35-11.84C17.91,36.58,19.47,35.7,21.23,34.67ZM268.5,82.91c-5.24,7.74-9.44,15.86-10.31,25.32a22.42,22.42,0,0,0,.05,6c.23,1.28,1.17,3.19,2.07,3.37,1.07.21,2.83-.86,3.59-1.89a17.69,17.69,0,0,0,2.85-5.75C269.2,101.09,269.22,92.07,268.5,82.91ZM190.09,52.76c-1-1.68-1.62-4.16-3.08-4.84-2.23-1-4.15,1.1-5,3a99.2,99.2,0,0,0-5,12.85c-.82,2.75,1.79,4.88,4.46,3.82a9.9,9.9,0,0,0,3.83-3C188,61.33,189.25,57.43,190.09,52.76Zm76.25-4.64C259.86,52,256.68,62.46,260.07,68,267.47,66.19,271.19,54.88,266.34,48.12Zm-174.55.25c-1.77.53-3.4.52-4.22,1.34a17,17,0,0,0-5.28,14.43c.29,2.55,2.14,3.54,4.24,2.14,3.2-2.15,6-4.75,5.71-9.2C92.08,54.6,92,52.11,91.79,48.37ZM104.53,20c-6.38,9.58-8,20.52-8.85,31.68C101.53,42,104.18,31.33,104.53,20ZM283.78,40.94c2.48-6.25,5.55-12.37,4.3-19.44C283.81,27.36,284.68,34.34,283.78,40.94ZM40.4,31.12c5.09.89,10,.87,14.48-1.64l-.2-1Z"/><path class="cls-1" d="M330.59,66.47c6-3.18,6.21-9.34,8.73-14.83L343,52.85c-.31,2.84-.67,5.13-.79,7.42-.11,2,.09,4.46,2.4,4.94a7.61,7.61,0,0,0,5.49-1c3.89-2.91,7.2-6.51,8-11.63.36-2.45,1-4.29,4.51-3.23,0,1,0,2.1,0,3.19a78.93,78.93,0,0,0-.34,8c.35,5.42,4,7.27,8.6,4.45a25.34,25.34,0,0,0,2.82-2.38c-3.29-10.39-2.58-20.71.57-30.92a44.56,44.56,0,0,1,3.09-7.34,19,19,0,0,1,3.23-4.41c1.93-2,4.25-3.3,7.16-2.18,2.75,1.05,3.66,3.53,3.55,6.05a99.77,99.77,0,0,1-1.4,14.35A52.44,52.44,0,0,1,382,56.92c-1,1.53-1.94,3.08-2.86,4.53,2.89,5.26,7.15,6.69,12,3.89,3.84-2.19,7.05-5.3,8.27-9.63a27.84,27.84,0,0,1,6.49-11c2.93-3.3,6.75-3.33,9.12.42a19.3,19.3,0,0,1,2.17,6.52,28.06,28.06,0,0,1,.07,5.34c6.52,2,11.95-2.06,12.74-9.31a23.75,23.75,0,0,1,.76-5.38c.36-1,1.72-1.65,2.63-2.46a16.43,16.43,0,0,1,2.19,3,7.65,7.65,0,0,1,.06,2.8c8-1.6,8.59-.81,6.74,7.49a23.05,23.05,0,0,0-.35,6.94c.42,5,2.29,5.9,7.61,4.09-.19-2.56-.53-5.16-.55-7.76A17.33,17.33,0,0,1,453.7,44.6c1.72-1.94,3.8-3.32,6.61-2,2.63,1.26,3.85,3.55,3.12,6.14a65.12,65.12,0,0,1-4.21,10.51c-.91,1.87-2.49,3.42-3.82,5.17,4,2.58,7.44,1.41,10.52-.88a19.5,19.5,0,0,0,6.8-9c2.52-6.73,6.23-9.76,13.26-11.31.68-3.52,1.18-7.3,2.18-10.93A62.35,62.35,0,0,1,492,22.07a11.61,11.61,0,0,1,4-4.35c3.43-2.25,6.43-.78,6.52,3.31a31.66,31.66,0,0,1-1.14,9.85c-2.42,7.94-4.78,16-8.24,23.49a12.23,12.23,0,0,0,.21,11.74c.52,1,1.08,2.06,1.82,3.46-3.72-.16-5.09-3-6.69-4.86-3.19,1.87-6,4.32-9.29,5.26-3.86,1.12-6.59-1.41-7.92-5.77-5.69,6.27-11.83,8-18.87,3.52-.74.28-1.35.52-2,.74-7.32,2.56-12.63-.8-13.25-8.54-.24-2.94,0-5.9,0-9l-3.76.33c-2.43,3-4.26,6.45-7.11,8.43-2.67,1.85-6.43,2.14-10.45,3.34-1.73,3.61-4.16,8-10,7.86-4.24-.09-5.73-3.45-6.68-6.22-3.78,1.85-7.39,4.27-11.37,5.39-4.38,1.24-8.55-.44-11.93-4.06-3.1,2.36-6.06,4.81-10.29,4.28-4.53-.57-6.4-3.72-7.9-8-1.47,1.45-2.68,2.69-3.94,3.89-5.83,5.55-10.64,5.15-15.45-1.55-2.86,2.12-4.33,6.77-9.08,5.6-3.46-.86-4.3-3.86-5.34-7-1.08.86-2.05,1.64-3,2.4-7.74,6-15.75,3-16.57-6.7-.55-6.4,0-12.94.52-19.39.59-8,1.61-15.89,2.43-23.84.07-.65,0-1.31,0-2.74-3.59,0-7,.13-10.45,0-3.16-.15-6.63,1-9.81-1.82,3.16-3.48,7-1.47,10.29-1.81s7-.08,10.61-.08c.48-1.53.82-2.78,1.26-4,.37-1,.86-2,1.33-3.1,4,1.06,2.48,4.42,3.23,6.76,6.44.28,12.7.55,18.95.87.21,0,.39.49,1,1.35-6.66,4-14,.43-21.16,2.5-1,8.47-2.1,17.18-3.1,25.9-.49,4.3-1.05,8.61-1.17,12.92a26.57,26.57,0,0,0,1,8.34c1.23,4.11,4,5.12,7.75,3.08,4.15-2.26,6.27-6.2,8.32-10.28a43.42,43.42,0,0,1,5.71-8.6c1.82-2.11,4.59-2.65,7.38-2,4,1,5,4.86,2,8.14-.28-.13-.74-.19-.82-.4-.68-1.79-.77-4.52-3.3-4.2-1.69.22-3.58,1.74-4.68,3.19C327.73,54.71,327.29,61.49,330.59,66.47Zm46.14-8.84c7.41-8.94,12.5-29.07,9.17-35.45C378.17,25,372.93,44.68,376.73,57.63ZM485,48.35c-3.44,0-4.21.36-6.09,3.65-2.48,4.33-4.3,8.84-2.14,13.83C484.68,66.08,487.88,58.93,485,48.35Zm4.28,3.79c5.58-7.31,9.87-23.22,7.95-30.12A60.15,60.15,0,0,0,489.26,52.14ZM405.82,53.5c-2.43,3.77-3.3,7.44-2.5,10.52s3.67,4.17,5.94,1.86c1.4-1.41,2.21-3.41,3.13-4.89Zm47.49,6.72c5.54-5.64,6.8-9,5-13.95C454.57,50.36,453.34,54.82,453.31,60.22ZM410.54,46.33c-2,4.54-1.64,5.6,2.46,8.37C413.13,51.71,413.76,48.77,410.54,46.33Z"/><path class="cls-1" d="M708.51,28.68V48.31l4.58,1.61c.26.53.4.68.4.83.36,9.61,0,9.59,10.69,10.84.82.1,1.63.22,2.53.35l2,7c-1.2-.16-2.69.11-3.24-.5-2.22-2.42-5.18-2.55-8-3.19-6-1.32-7.64-3.8-6.88-10,.1-.81.2-1.63.33-2.71-1-.25-1.93-.54-2.86-.69-4.28-.71-4.86-1.55-4.39-6,.35-3.27.56-6.54.84-9.87-8.68-2.7-17.7,1.57-26-3.12A13.5,13.5,0,0,1,675,35.23c-1.68.54-3.59.34-6,.5-.13,2.19-.38,4.27-.33,6.34,0,1.65.53,3.29.65,4.94.15,2.31.59,4.88-1.78,6.37-2.61,1.64-5.41,1.3-8.08-.07-1.59-.81-3.11-1.76-5.37-3.06-.37,2-.67,3.31-.89,4.67-1.06,6.76-3.56,7.87-9.45,4.15-1-.62-1.93-1.29-3.22-2.16-.81,1.31-1.59,2.52-2.33,3.76-4.17,6.92-10,11.49-18.12,12.87-7,1.2-12.19,1.12-17.2-7.9-1.09,1-2.11,1.94-3.2,2.82-6.61,5.36-14.39,2.48-15.52-5.91-.43-3.23-.07-6.57-.07-10l-4.76.61c-1.57,2.86-3.21,5.92-4.92,8.94a32.41,32.41,0,0,1-3.14,5.08c-3.42,4.08-8.72,3.88-12-.33-.8-1-1.4-2.23-2.31-3.71-2.22,3.23-3.91,7.22-8.44,6.63-3.93-.52-4.8-4.15-5.87-7.27l-9.86,1.26c-4.79,10.29-13,12.19-17.87,2.22-1.07,1.11-2.07,2.14-3.06,3.2a6.24,6.24,0,0,1-6.44,1.65c-2.54-.61-3.5-2.61-3.46-4.89.12-7,0-14,.81-20.89,1-8.91,2.84-17.73,4.27-26.6a38.83,38.83,0,0,0,.24-4c-6.63-1.25-13.42.71-19.84-1.76.49-2.91,2.23-2.61,3.86-2.6,5.48,0,11,0,16.9,0l2.41-6.42c4.71.95,2.38,4.6,3.21,6.9,6.28.33,12.56.65,18.84,1,.23,0,.43.46.78.87-.82,2.72-3.16,2.31-5.19,2.33-5,0-9.95,0-15.45,0-2.74,16.31-5.83,32.86-6.44,49.91,4.09.56,5.43-2,6.86-4.08,3-4.4,5.69-9,8.7-13.37,3.27-4.73,8.14-4.48,10.29.81,1.33,3.27,1.4,7.06,2.07,10.79,4.73,1.86,7.76.52,9.14-4.3.51-1.76,1-3.51,1.54-5.27s.93-3.5,3.22-2.77c2,.65,1.23,2.4,1,3.82-.61,3.6-1.45,7.17-1.74,10.79-.12,1.53.94,3.16,1.54,5,4.75-2.36,5.72-6.37,7.09-10,.69-1.86.82-3.93,1.49-5.79s2-3.19,3.63-1.73c0,4.23-.05,8,0,11.8,0,2.35.12,4.91,2.88,5.79,2.92.94,4.86-1,6.14-3.15,3.08-5.25,6.78-10.26,7-16.81,0-1.73,1.29-3.42,1.94-5,4.36,1.05,3,4.12,3.51,6.31a4,4,0,0,0,.57,0c2.05-.08,4.62-1,6-.07,2.26,1.45.77,4.1.38,6.38a31.43,31.43,0,0,0-.41,9.32c.51,3.63,3.5,4.89,6.72,3.15A14.57,14.57,0,0,0,600,62.82c4.17-5.07,7.48-10.53,8.17-17.34.47-4.59,4.11-7.31,8.71-7,2.46.15,3.63,1.38,3.16,4l-5.86,2.12c.82,3.34,1.48,6.39,2.34,9.39,2.24,7.8,1.47,10.3-5.6,15.48,2.4.31,4.11.83,5.77.71a23.41,23.41,0,0,0,18.64-11c1.44-2.19,2.9-4.36,4.6-6.91l9.1,4.85c.3-2,.56-3.54.78-5.1.59-4.25,3.53-5.91,7.49-4.25,2.22.92,4.08,3.05,7.19,2,2.44-5.9,1.11-12.33,1.82-18.37,2.4-2.76,4.52-1,6.58.84l5.77-9.18,4.86,7c2.89.29,5.21.85,7.49.7,4.43-.28,9.17,2,13.26-1.65C705,28.5,706.47,28.84,708.51,28.68ZM522,55c-2.1,3.63-3.31,7-2.31,10.75.92,3.44,3.9,4.22,6.28,1.58a26.88,26.88,0,0,0,2.84-4.72Zm85.89,10.27c6.36-1.18,7.55-8.11,2-15.16C610.13,55.74,603.4,59.51,607.85,65.24ZM527.14,47.91c-2.55,4-2,6,2.3,8.18C529.36,53.23,529.88,50.43,527.14,47.91Z"/><path class="cls-1" d="M360.6,45.08c-.73-1.13-2.08-2.33-2.16-3.6a3.13,3.13,0,0,1,3.21-3.55c2.08,0,2.7,1.44,2.74,3.29C364.44,43.41,363.25,44.45,360.6,45.08Z"/><path class="cls-1" d="M123.3,41.76c0,3-.84,4.72-3.06,4.44a4.13,4.13,0,0,1-2.84-2.56c-.41-1.86.59-3.81,2.76-3.76C121.36,39.91,122.53,41.27,123.3,41.76Z"/></g></g></svg>